<?xml version="1.0" encoding="UTF-8"?>
<svg id="Layer_1" data-name="Layer 1" xmlns="http://www.w3.org/2000/svg" xmlns:xlink="http://www.w3.org/1999/xlink" viewBox="0 0 192.15 58.64">
  <defs>
    <style>
      .cls-1 {
        fill: none;
      }

      .cls-2 {
        fill: url(#linear-gradient-8);
      }

      .cls-3 {
        fill: url(#linear-gradient-7);
      }

      .cls-4 {
        fill: url(#linear-gradient-5);
      }

      .cls-5 {
        fill: url(#linear-gradient-6);
      }

      .cls-6 {
        fill: url(#linear-gradient-9);
      }

      .cls-7 {
        fill: url(#linear-gradient-4);
      }

      .cls-8 {
        fill: url(#linear-gradient-3);
      }

      .cls-9 {
        fill: url(#linear-gradient-2);
      }

      .cls-10 {
        fill: url(#linear-gradient);
      }

      .cls-11 {
        clip-path: url(#clippath-11);
      }

      .cls-12 {
        clip-path: url(#clippath-16);
      }

      .cls-13 {
        clip-path: url(#clippath-10);
      }

      .cls-14 {
        clip-path: url(#clippath-15);
      }

      .cls-15 {
        clip-path: url(#clippath-13);
      }

      .cls-16 {
        clip-path: url(#clippath-14);
      }

      .cls-17 {
        clip-path: url(#clippath-12);
      }

      .cls-18 {
        clip-path: url(#clippath-1);
      }

      .cls-19 {
        clip-path: url(#clippath-3);
      }

      .cls-20 {
        clip-path: url(#clippath-4);
      }

      .cls-21 {
        clip-path: url(#clippath-2);
      }

      .cls-22 {
        clip-path: url(#clippath-7);
      }

      .cls-23 {
        clip-path: url(#clippath-6);
      }

      .cls-24 {
        clip-path: url(#clippath-9);
      }

      .cls-25 {
        clip-path: url(#clippath-8);
      }

      .cls-26 {
        clip-path: url(#clippath-5);
      }

      .cls-27 {
        fill: url(#linear-gradient-10);
      }

      .cls-28 {
        fill: url(#linear-gradient-11);
      }

      .cls-29 {
        fill: url(#linear-gradient-12);
      }

      .cls-30 {
        fill: url(#linear-gradient-13);
      }

      .cls-31 {
        fill: url(#linear-gradient-14);
      }

      .cls-32 {
        fill: url(#linear-gradient-15);
      }

      .cls-33 {
        fill: url(#linear-gradient-16);
      }

      .cls-34 {
        fill: url(#linear-gradient-17);
      }

      .cls-35 {
        clip-path: url(#clippath);
      }

      .cls-36 {
        fill: #e1e8e8;
      }
    </style>
    <clipPath id="clippath">
      <path class="cls-1" d="M6.39,12.72c-1.22.81-2.12,1.94-2.71,3.41l3.43,2.05c.45-.89.99-1.57,1.6-2.03.61-.46,1.27-.69,1.98-.69.57,0,1.03.15,1.36.44.34.3.51.69.51,1.17,0,.45-.18.93-.53,1.44-.35.5-.98,1.18-1.87,2.02l-6.24,5.83v3.18h13.16v-3.94h-6.79l3.89-3.64c.96-.91,1.66-1.76,2.1-2.56.44-.8.66-1.65.66-2.56,0-1.01-.26-1.92-.78-2.73-.52-.81-1.26-1.44-2.21-1.91-.95-.46-2.04-.69-3.27-.69-1.63,0-3.06.4-4.28,1.21"/>
    </clipPath>
    <linearGradient id="linear-gradient" x1="2936.83" y1="1856.83" x2="2937.69" y2="1856.83" gradientTransform="translate(328504.1738 519684.5039) rotate(-90) scale(176.9113 -176.9113)" gradientUnits="userSpaceOnUse">
      <stop offset="0" stop-color="#fff"/>
      <stop offset=".43" stop-color="#fff"/>
      <stop offset=".49" stop-color="#edf5f6"/>
      <stop offset=".62" stop-color="#bfdce1"/>
      <stop offset=".77" stop-color="#80b9c3"/>
      <stop offset=".84" stop-color="#abb77f"/>
      <stop offset=".95" stop-color="#e7b424"/>
      <stop offset="1" stop-color="#ffb400"/>
    </linearGradient>
    <clipPath id="clippath-1">
      <path class="cls-1" d="M24.44,24.52c-.56-.96-.83-2.23-.83-3.81s.28-2.85.83-3.81c.55-.96,1.3-1.44,2.22-1.44s1.67.48,2.22,1.44c.55.96.83,2.23.83,3.81s-.28,2.85-.83,3.81c-.56.96-1.3,1.44-2.22,1.44s-1.67-.48-2.22-1.44M22.73,12.66c-1.14.77-2.02,1.84-2.64,3.23-.62,1.39-.93,2.99-.93,4.81s.31,3.42.93,4.81c.62,1.39,1.5,2.47,2.64,3.23,1.14.77,2.44,1.15,3.93,1.15s2.79-.38,3.93-1.15c1.14-.77,2.02-1.84,2.64-3.23.62-1.39.93-2.99.93-4.81s-.31-3.42-.93-4.81c-.62-1.39-1.5-2.47-2.64-3.23-1.14-.77-2.45-1.15-3.93-1.15s-2.79.38-3.93,1.15"/>
    </clipPath>
    <linearGradient id="linear-gradient-2" x1="2936.83" y1="1856.85" x2="2937.69" y2="1856.85" gradientTransform="translate(328523.5901 519681.1186) rotate(-90) scale(176.9113 -176.9113)" xlink:href="#linear-gradient"/>
    <clipPath id="clippath-2">
      <path class="cls-1" d="M38.58,12.77c-1.22.81-2.13,1.94-2.72,3.41l3.44,2.05c.45-.89.99-1.57,1.6-2.03.61-.46,1.28-.69,1.98-.69.57,0,1.03.15,1.36.44.34.29.51.69.51,1.17,0,.45-.18.93-.53,1.44-.35.51-.98,1.18-1.87,2.02l-6.24,5.83v3.18h13.16v-3.94h-6.79l3.89-3.64c.96-.91,1.66-1.76,2.1-2.56.44-.8.66-1.65.66-2.56,0-1.01-.26-1.92-.78-2.73-.52-.81-1.26-1.44-2.21-1.91-.95-.46-2.04-.69-3.27-.69-1.63,0-3.06.4-4.28,1.21"/>
    </clipPath>
    <linearGradient id="linear-gradient-3" x1="2936.83" y1="1856.86" x2="2937.69" y2="1856.86" gradientTransform="translate(328542.1142 519677.4495) rotate(-90.0001) scale(176.9113 -176.9113)" xlink:href="#linear-gradient"/>
    <clipPath id="clippath-3">
      <path class="cls-1" d="M55.5,25.66c-.5-.53-.74-1.22-.74-2.08s.26-1.55.78-2.08c.52-.53,1.2-.8,2.04-.8.79,0,1.43.27,1.91.8.48.53.72,1.22.72,2.08s-.25,1.55-.74,2.08c-.5.53-1.16.8-1.98.8s-1.49-.26-1.98-.8M55.82,11.91l-3.1,5.05c-.88,1.46-1.47,2.69-1.78,3.69-.31.99-.47,1.94-.47,2.83,0,1.26.29,2.37.87,3.33.58.96,1.4,1.71,2.46,2.24,1.06.53,2.29.8,3.69.8s2.63-.27,3.69-.8c1.06-.53,1.88-1.28,2.46-2.24.58-.96.87-2.07.87-3.33,0-1.19-.29-2.26-.87-3.18-.58-.93-1.39-1.64-2.44-2.15-1.04-.51-2.25-.76-3.61-.76-.34,0-.59,0-.76.02l3.76-5.5h-4.77Z"/>
    </clipPath>
    <linearGradient id="linear-gradient-4" x1="2936.83" y1="1856.87" x2="2937.69" y2="1856.87" gradientTransform="translate(328558.4584 519674.8833) rotate(-90) scale(176.9113 -176.9113)" xlink:href="#linear-gradient"/>
    <clipPath id="clippath-4">
      <path class="cls-1" d="M74.27,15.63v11.72c0,.68-.11,1.16-.34,1.44-.23.28-.59.42-1.1.42-.42,0-1.01-.09-1.76-.27l-.71,3.17c1.09.36,2.12.54,3.08.54,1.45,0,2.56-.45,3.35-1.34.78-.9,1.17-2.21,1.17-3.96h2.54v-3.61h-2.54v-8.11h-3.69Z"/>
    </clipPath>
    <linearGradient id="linear-gradient-5" x1="2938.56" y1="1839.9" x2="2939.41" y2="1839.9" gradientTransform="translate(549613.6008 877931.0399) rotate(-90) scale(298.6792 -298.6792)" gradientUnits="userSpaceOnUse">
      <stop offset="0" stop-color="#fff"/>
      <stop offset=".43" stop-color="#fff"/>
      <stop offset=".49" stop-color="#edf5f6"/>
      <stop offset=".62" stop-color="#bfdce1"/>
      <stop offset=".77" stop-color="#80b9c3"/>
      <stop offset=".85" stop-color="#54a3b0"/>
      <stop offset="1" stop-color="#007a8c"/>
    </linearGradient>
    <clipPath id="clippath-5">
      <path class="cls-1" d="M80.5,23.74c-.57,0-1.04.17-1.4.51-.37.34-.55.77-.55,1.29s.18.95.55,1.29c.37.34.83.51,1.4.51h4.88v-3.61h-4.88Z"/>
    </clipPath>
    <linearGradient id="linear-gradient-6" x1="2938.56" y1="1839.9" x2="2939.41" y2="1839.9" gradientTransform="translate(549619.8316 877926.3473) rotate(-89.9999) scale(298.6792 -298.6792)" xlink:href="#linear-gradient-5"/>
    <clipPath id="clippath-6">
      <path class="cls-1" d="M85.38,23.74c-.57,0-1.04.17-1.4.51-.37.34-.55.77-.55,1.29s.18.95.55,1.29c.37.34.83.51,1.4.51h4.88v-3.61h-4.88Z"/>
    </clipPath>
    <linearGradient id="linear-gradient-7" x1="2938.56" y1="1839.9" x2="2939.41" y2="1839.9" gradientTransform="translate(549623.5543 877922.5963) rotate(-89.9998) scale(298.6792 -298.6792)" xlink:href="#linear-gradient-5"/>
    <clipPath id="clippath-7">
      <path class="cls-1" d="M90.26,23.74c-.57,0-1.04.17-1.4.51-.37.34-.55.77-.55,1.29s.18.95.55,1.29c.37.34.83.51,1.4.51h4.88v-3.61h-4.88Z"/>
    </clipPath>
    <linearGradient id="linear-gradient-8" x1="2938.56" y1="1839.9" x2="2939.41" y2="1839.9" gradientTransform="translate(549632.5226 877915.562) rotate(-90.0001) scale(298.6792 -298.6792)" xlink:href="#linear-gradient-5"/>
    <clipPath id="clippath-8">
      <path class="cls-1" d="M95.15,23.74c-.57,0-1.04.17-1.4.51-.37.34-.55.77-.55,1.29s.18.95.55,1.29c.37.34.83.51,1.4.51h4.88v-3.61h-4.88Z"/>
    </clipPath>
    <linearGradient id="linear-gradient-9" x1="2938.56" y1="1839.9" x2="2939.41" y2="1839.9" gradientTransform="translate(549636.191 877911.845) rotate(-90) scale(298.6792 -298.6792)" xlink:href="#linear-gradient-5"/>
    <clipPath id="clippath-9">
      <path class="cls-1" d="M100.03,23.74c-.57,0-1.04.17-1.4.51-.37.34-.55.77-.55,1.29s.18.95.55,1.29c.37.34.83.51,1.4.51h4.88v-3.61h-4.88Z"/>
    </clipPath>
    <linearGradient id="linear-gradient-10" x1="2938.56" y1="1839.9" x2="2939.41" y2="1839.9" gradientTransform="translate(549644.9246 877904.9574) rotate(-90.0002) scale(298.6792 -298.6792)" xlink:href="#linear-gradient-5"/>
    <clipPath id="clippath-10">
      <path class="cls-1" d="M107.97,15.63v8.11h-3.05c-.59,0-1.06.16-1.42.49-.36.33-.54.75-.54,1.27s.19.96.56,1.32c.38.36.84.54,1.39.54h6.74v-11.72h-3.69ZM105.96,9.92c-.41.41-.61.9-.61,1.47s.2,1.06.61,1.46.9.61,1.47.61,1.06-.2,1.46-.61c.41-.41.61-.9.61-1.46s-.2-1.06-.61-1.47c-.41-.41-.9-.61-1.46-.61s-1.06.2-1.47.61M110.82,9.92c-.41.41-.61.9-.61,1.47s.2,1.06.61,1.46c.41.41.89.61,1.46.61s1.06-.2,1.46-.61c.41-.41.61-.9.61-1.46s-.2-1.06-.61-1.47c-.41-.41-.9-.61-1.46-.61s-1.06.2-1.46.61M108.38,5.76c-.41.41-.61.9-.61,1.46s.2,1.06.61,1.46c.41.41.9.61,1.46.61s1.06-.2,1.46-.61c.41-.41.61-.89.61-1.46s-.2-1.06-.61-1.46c-.41-.41-.9-.61-1.46-.61s-1.06.2-1.46.61"/>
    </clipPath>
    <linearGradient id="linear-gradient-11" x1="2938.56" y1="1839.91" x2="2939.41" y2="1839.91" gradientTransform="translate(549651.0883 877893.0819) rotate(-90.0001) scale(298.6792 -298.6792)" xlink:href="#linear-gradient-5"/>
    <clipPath id="clippath-11">
      <path class="cls-1" d="M128.53,9.43v14.31h-3.25l-3.64-11.94h-3.81l3.64,11.94h-5.32v3.61h16.07V9.43h-3.69ZM117.86,5.48c-.55.46-.83,1.06-.83,1.79,0,.62.19,1.1.56,1.44h-.56v1.54h5.08v-1.54h-1.95c-.39,0-.71-.11-.96-.33-.25-.22-.38-.51-.38-.87s.11-.6.34-.77c.23-.17.52-.26.88-.26.28,0,.59.07.93.2l.76-1.46c-.6-.29-1.21-.44-1.83-.44-.8,0-1.47.23-2.03.7"/>
    </clipPath>
    <linearGradient id="linear-gradient-12" x1="2938.56" y1="1839.9" x2="2939.41" y2="1839.9" gradientTransform="translate(549665.1817 877878.5947) rotate(-90) scale(298.6792 -298.6792)" xlink:href="#linear-gradient-5"/>
    <clipPath id="clippath-12">
      <rect class="cls-1" x="134.8" y="9.43" width="3.69" height="17.92"/>
    </clipPath>
    <linearGradient id="linear-gradient-13" x1="2938.56" y1="1839.91" x2="2939.41" y2="1839.91" gradientTransform="translate(549679.2591 877868.859) rotate(-90) scale(298.6792 -298.6792)" xlink:href="#linear-gradient-5"/>
    <clipPath id="clippath-13">
      <path class="cls-1" d="M144.67,23.74c-.57,0-1.04.17-1.4.51-.37.34-.55.77-.55,1.29s.18.95.55,1.29c.37.34.83.51,1.4.51h4.88v-3.61h-4.88Z"/>
    </clipPath>
    <linearGradient id="linear-gradient-14" x1="2938.56" y1="1839.91" x2="2939.41" y2="1839.91" gradientTransform="translate(549691.8834 877862.5784) rotate(-90.0002) scale(298.6792 -298.6792)" xlink:href="#linear-gradient-5"/>
    <clipPath id="clippath-14">
      <path class="cls-1" d="M156.65,23.7c-.55-.19-1.07-.47-1.54-.84.06-.2.11-.37.13-.52.02-.15.05-.29.08-.4.08-.52.2-1.02.37-1.49.33-.98.7-1.69,1.11-2.14.42-.45.96-.67,1.62-.67.88,0,1.59.31,2.12.94.54.63.81,1.41.81,2.36s-.29,1.73-.88,2.26c-.59.53-1.33.79-2.22.79-.52,0-1.06-.09-1.61-.28M154.49,15.48c-1.08,1.02-1.88,2.47-2.38,4.32-.07.21-.18.67-.34,1.37-.16.68-.3,1.19-.43,1.51-.12.33-.32.58-.6.77-.28.19-.68.28-1.2.28-.59,0-1.06.16-1.42.49-.36.33-.54.75-.54,1.27s.19.96.56,1.32c.37.36.84.54,1.39.54.89,0,1.71-.16,2.45-.48.74-.32,1.36-.78,1.84-1.38.73.62,1.53,1.08,2.38,1.39.85.31,1.72.46,2.6.46,1.12,0,2.16-.25,3.1-.76.94-.51,1.7-1.24,2.27-2.21.57-.97.85-2.12.85-3.45s-.29-2.46-.87-3.53c-.58-1.07-1.37-1.91-2.37-2.53-1-.62-2.13-.93-3.38-.93-1.55,0-2.86.51-3.94,1.54"/>
    </clipPath>
    <linearGradient id="linear-gradient-15" x1="2938.56" y1="1839.91" x2="2939.41" y2="1839.91" gradientTransform="translate(549699.0218 877851.6415) rotate(-90) scale(298.6792 -298.6792)" xlink:href="#linear-gradient-5"/>
    <clipPath id="clippath-15">
      <polygon class="cls-1" points="167.64 9.43 167.64 27.35 174.36 27.35 174.36 23.74 171.33 23.74 171.33 9.43 167.64 9.43"/>
    </clipPath>
    <linearGradient id="linear-gradient-16" x1="2938.56" y1="1839.91" x2="2939.41" y2="1839.91" gradientTransform="translate(549712.8006 877837.5225) rotate(-89.9998) scale(298.6792 -298.6792)" xlink:href="#linear-gradient-5"/>
    <clipPath id="clippath-16">
      <path class="cls-1" d="M178.56,14.79c-1.17.56-2.09,1.35-2.76,2.36-.67,1.01-1,2.17-1,3.49s.42,2.37,1.25,3.1h-1.69c-.54,0-1,.17-1.38.52-.38.35-.57.78-.57,1.28s.19.93.57,1.28c.38.35.84.52,1.38.52h13.8v-3.61h-5.64c-1.35,0-2.36-.26-3.03-.79-.67-.53-1-1.26-1-2.19,0-.99.38-1.78,1.15-2.37.77-.59,1.73-.88,2.91-.88.52,0,1.13.08,1.82.23.69.15,1.41.39,2.16.7l1.27-3.3c-.94-.41-1.88-.71-2.8-.9-.92-.2-1.76-.29-2.53-.29-1.43,0-2.73.28-3.91.84"/>
    </clipPath>
    <linearGradient id="linear-gradient-17" x1="2938.56" y1="1839.92" x2="2939.41" y2="1839.92" gradientTransform="translate(549725.0697 877828.5661) rotate(-90) scale(298.6792 -298.6792)" xlink:href="#linear-gradient-5"/>
  </defs>
  <g class="cls-35">
    <rect class="cls-10" x="1.95" y="10.31" width="16.88" height="20.43" transform="translate(-4.06 2.62) rotate(-12.05)"/>
  </g>
  <g class="cls-18">
    <rect class="cls-9" x="17.41" y="10.15" width="18.51" height="21.11" transform="translate(-3.73 6.02) rotate(-12.05)"/>
  </g>
  <g class="cls-21">
    <rect class="cls-8" x="34.13" y="10.36" width="16.88" height="20.43" transform="translate(-3.36 9.34) rotate(-12.05)"/>
  </g>
  <g class="cls-19">
    <rect class="cls-7" x="48.75" y="10.65" width="17.47" height="20.46" transform="translate(-3.09 12.46) rotate(-12.05)"/>
  </g>
  <g class="cls-20">
    <rect class="cls-4" x="65.76" y="16.66" width="19.34" height="14.96" transform="translate(28.83 88.18) rotate(-71.71)"/>
  </g>
  <g class="cls-26">
    <rect class="cls-5" x="79.17" y="21.73" width="5.58" height="7.63" transform="translate(31.98 95.34) rotate(-71.71)"/>
  </g>
  <g class="cls-23">
    <rect class="cls-3" x="84.06" y="21.73" width="5.58" height="7.62" transform="translate(35.33 99.98) rotate(-71.71)"/>
  </g>
  <g class="cls-22">
    <rect class="cls-2" x="88.94" y="21.73" width="5.58" height="7.62" transform="translate(38.68 104.62) rotate(-71.71)"/>
  </g>
  <g class="cls-25">
    <rect class="cls-6" x="93.82" y="21.73" width="5.58" height="7.63" transform="translate(42.04 109.25) rotate(-71.71)"/>
  </g>
  <g class="cls-24">
    <rect class="cls-27" x="98.71" y="21.73" width="5.58" height="7.63" transform="translate(45.39 113.89) rotate(-71.71)"/>
  </g>
  <g class="cls-13">
    <rect class="cls-28" x="96.34" y="7.35" width="24.65" height="17.79" transform="translate(59.12 114.32) rotate(-71.71)"/>
  </g>
  <g class="cls-11">
    <rect class="cls-29" x="110.95" y="4.9" width="26.46" height="22.34" transform="translate(69.94 128.93) rotate(-71.71)"/>
  </g>
  <g class="cls-17">
    <rect class="cls-30" x="127.56" y="13.82" width="18.17" height="9.13" transform="translate(76.29 142.35) rotate(-71.71)"/>
  </g>
  <g class="cls-15">
    <rect class="cls-31" x="143.34" y="21.73" width="5.58" height="7.63" transform="translate(76.01 156.27) rotate(-71.71)"/>
  </g>
  <g class="cls-16">
    <rect class="cls-32" x="147.22" y="10.26" width="18.21" height="20.78" transform="translate(87.65 162.59) rotate(-71.71)"/>
  </g>
  <g class="cls-14">
    <rect class="cls-33" x="161.44" y="12.39" width="19.12" height="12" transform="translate(99.87 174.97) rotate(-71.71)"/>
  </g>
  <g class="cls-12">
    <rect class="cls-34" x="171.44" y="11.07" width="17.67" height="19.16" transform="translate(104.09 185.33) rotate(-71.71)"/>
  </g>
  <path class="cls-36" d="M17.85,38.38v4.99c.3-.24.77-.46,1.39-.65.62-.19,1.28-.28,1.96-.28,1.59,0,2.72.38,3.37,1.13.65.75.98,2.15.98,4.2v6.49h-1.48v-6.2c0-1.72-.21-2.85-.63-3.4-.42-.55-1.22-.82-2.4-.82-.87,0-1.61.14-2.24.43-.63.29-.95.68-.95,1.18v8.8h-1.48v-14.51h-5.38v14.51h-1.66v-14.51H3.82v-1.37h14.04ZM33.87,42.44c1.69,0,2.89.44,3.61,1.33.72.89,1.08,2.52,1.08,4.89h-8.23c.01,1.79.32,3,.9,3.61.58.62,1.58.92,2.97.92,1.09,0,2.19-.21,3.3-.62l.34,1.37c-1.38.43-2.64.64-3.78.64-1.84,0-3.19-.46-4.07-1.37-.87-.91-1.31-2.5-1.31-4.76s.42-3.74,1.25-4.65c.84-.91,2.14-1.37,3.92-1.37ZM33.87,43.83c-1.23,0-2.1.25-2.61.74-.51.49-.81,1.41-.9,2.75h6.52c-.06-1.4-.3-2.33-.73-2.79-.43-.46-1.18-.69-2.28-.69ZM47.2,58.64c.53-.99,1.15-2.26,1.87-3.83-1.5-5.32-2.92-9.33-4.24-12.05h1.66c1.2,2.72,2.38,6.11,3.55,10.19,1.61-3.9,2.82-7.3,3.62-10.19h1.62c-.96,3.19-2.38,7.03-4.28,11.51-.62,1.49-1.31,2.95-2.07,4.37h-1.73ZM62.47,42.44c1.69,0,2.89.44,3.61,1.33.72.89,1.08,2.52,1.08,4.89h-8.23c.01,1.79.32,3,.9,3.61.58.62,1.58.92,2.97.92,1.09,0,2.19-.21,3.3-.62l.34,1.37c-1.38.43-2.64.64-3.78.64-1.84,0-3.19-.46-4.07-1.37-.87-.91-1.31-2.5-1.31-4.76s.42-3.74,1.25-4.65c.84-.91,2.14-1.37,3.92-1.37ZM62.47,43.83c-1.23,0-2.1.25-2.61.74-.51.49-.81,1.41-.9,2.75h6.52c-.06-1.4-.3-2.33-.73-2.79-.43-.46-1.18-.69-2.28-.69ZM78.92,46.9v6.77c-1.34.61-2.89.91-4.65.91s-2.89-.28-3.6-.84c-.71-.56-1.07-1.57-1.07-3.03s.39-2.51,1.16-3.03c.77-.52,1.91-.77,3.4-.77,1.03,0,2.13.12,3.28.36,0-1.4-.23-2.32-.68-2.76-.46-.44-1.36-.66-2.71-.66s-2.45.18-3.3.55l-.43-1.39c1.35-.38,2.63-.57,3.83-.57,1.73,0,2.96.32,3.69.96.73.64,1.09,1.81,1.09,3.51ZM74.34,53.24c1.09,0,2.13-.17,3.1-.52v-4.19c-.81-.2-1.84-.3-3.1-.3s-2.03.14-2.45.42c-.42.28-.63.93-.63,1.95,0,1.12.2,1.85.6,2.16.4.32,1.23.48,2.47.48h0ZM87.1,42.44c.43,0,.82.02,1.18.07v1.53c-.46-.06-.85-.09-1.18-.09-.93,0-1.7.13-2.31.39-.62.26-.92.64-.92,1.14v8.8h-1.48v-11.51h1.48v.82c.24-.3.65-.57,1.23-.8.58-.23,1.25-.34,2.01-.34ZM104.92,48.45c0,2.29-.41,3.89-1.23,4.78-.82.9-2.16,1.34-4.01,1.34s-3.19-.45-4-1.34c-.81-.9-1.22-2.49-1.22-4.78s.41-3.85,1.22-4.72c.81-.87,2.15-1.3,4-1.3s3.19.43,4.01,1.3c.82.87,1.23,2.44,1.23,4.72h0ZM99.68,43.8c-1.38,0-2.32.3-2.83.91-.5.61-.75,1.87-.75,3.78s.25,3.08.76,3.74c.51.65,1.45.98,2.81.98s2.33-.33,2.84-.98c.51-.65.76-1.9.76-3.74s-.25-3.17-.75-3.78c-.5-.61-1.45-.91-2.85-.91ZM110.16,41.68v1.07h4.1v1.37h-4.1v10.14h-1.48v-10.14h-2.03v-1.37h2.03v-1.07c0-.8.1-1.47.3-2.01.2-.53.49-.92.88-1.16.39-.24.77-.41,1.16-.5s.85-.14,1.4-.14c.93,0,1.79.12,2.6.36l-.39,1.3c-.62-.2-1.36-.3-2.21-.3-.32,0-.59.02-.82.07-.23.05-.46.14-.71.3-.24.15-.43.4-.55.75-.12.35-.18.79-.18,1.32ZM121.5,38.38c.36,0,.61.05.74.16.13.11.19.35.19.73,0,.41-.06.68-.19.8-.13.12-.38.18-.74.18s-.63-.06-.76-.18c-.13-.12-.19-.39-.19-.8,0-.38.06-.62.19-.73.13-.11.38-.16.76-.16ZM122.21,54.26v-11.51h-1.48v11.51h1.48ZM129.89,43.85c-1.02,0-1.93.13-2.73.39v10.03h-1.48v-10.91c1.34-.61,2.83-.91,4.47-.91,1.43,0,2.46.27,3.1.8,1.41-.53,2.83-.8,4.24-.8,1.67,0,2.81.37,3.43,1.11.62.74.92,2.15.92,4.23v6.49h-1.48v-6.2c0-1.72-.22-2.85-.65-3.4-.43-.55-1.26-.82-2.5-.82s-2.23.17-3.19.5c.32.88.48,2.02.48,3.42v6.49h-1.48v-6.2c0-1.72-.21-2.85-.64-3.4-.43-.55-1.25-.82-2.48-.82h0ZM149.92,54.58c-1.31,0-2.36-.32-3.17-.96v5.01h-1.48v-15.29c.61-.27,1.35-.49,2.23-.66.88-.17,1.69-.25,2.42-.25,1.85,0,3.19.43,4,1.3.81.87,1.22,2.44,1.22,4.72s-.41,3.89-1.22,4.78c-.81.9-2.15,1.34-4,1.34ZM149.92,43.85c-1.22,0-2.27.16-3.17.48v7.2c0,.52.3.92.91,1.21.61.29,1.36.43,2.26.43,1.37,0,2.3-.32,2.81-.96.51-.64.76-1.88.76-3.71s-.25-3.15-.74-3.75c-.49-.6-1.44-.9-2.84-.9ZM167.19,46.9v6.77c-1.34.61-2.89.91-4.65.91s-2.89-.28-3.6-.84c-.71-.56-1.07-1.57-1.07-3.03s.39-2.51,1.16-3.03c.77-.52,1.91-.77,3.4-.77,1.03,0,2.13.12,3.28.36,0-1.4-.23-2.32-.68-2.76-.46-.44-1.36-.66-2.71-.66s-2.45.18-3.3.55l-.43-1.39c1.35-.38,2.63-.57,3.83-.57,1.73,0,2.96.32,3.69.96.73.64,1.09,1.81,1.09,3.51ZM162.61,53.24c1.09,0,2.13-.17,3.1-.52v-4.19c-.81-.2-1.84-.3-3.1-.3s-2.03.14-2.45.42c-.42.28-.63.93-.63,1.95,0,1.12.2,1.85.6,2.16.4.32,1.23.48,2.47.48h0ZM175.92,53.17c.99,0,1.92-.2,2.8-.59l.48,1.37c-.96.43-2.05.64-3.28.64-1.88,0-3.28-.46-4.19-1.37s-1.37-2.5-1.37-4.76.46-3.81,1.37-4.69c.91-.88,2.31-1.32,4.19-1.32,1.22,0,2.31.19,3.28.57l-.48,1.39c-.77-.36-1.71-.55-2.8-.55-.71,0-1.3.06-1.75.18-.46.12-.85.35-1.2.67-.34.33-.59.8-.74,1.41-.15.62-.23,1.41-.23,2.38,0,1.81.3,3.04.9,3.69.6.65,1.61.98,3.02.98h0ZM183.35,44.12v6.27c0,1,.16,1.72.48,2.14.32.43.87.64,1.66.64.84,0,1.56-.11,2.19-.34l.34,1.32c-.84.29-1.68.43-2.53.43-1.35,0-2.29-.28-2.83-.85-.53-.57-.8-1.67-.8-3.32v-6.29h-2.03v-1.37h2.03v-2.42l1.48-.62v3.03h4.26v1.37h-4.26Z"/>
</svg>