<?xml version="1.0" encoding="UTF-8"?>
<svg id="Layer_1" data-name="Layer 1" xmlns="http://www.w3.org/2000/svg" version="1.1" viewBox="0 0 400 400">
  <defs>
    <style>
      .cls-1 {
        fill: #335483;
      }

      .cls-1, .cls-2, .cls-3, .cls-4 {
        stroke-width: 0px;
      }

      .cls-2 {
        fill: #1a9399;
      }

      .cls-3 {
        fill: #ec6056;
      }

      .cls-4 {
        fill: #fbbb2e;
      }
    </style>
  </defs>
  <path class="cls-1" d="M195.41,194.59c4.07-3.92,8.65-7.99,12.4-11.91,1.78-1.51,1.78-3.47,0-4.99-1.59-1.4-3.81-1.85-6.03,0l-17.1,15.6,4.58,5.73,11.22,12.83c2.54,3.59,10.67.22,6.86-4.43l-11.92-12.83Z"/>
  <path class="cls-4" d="M109.01,161.29c3.71-3.58,7.89-7.29,11.31-10.86,1.62-1.38,1.62-3.17,0-4.55-1.45-1.28-3.47-1.69-5.5,0l-15.6,14.22,4.17,5.22,10.23,11.7c2.32,3.27,9.73.21,6.25-4.04l-10.87-11.7Z"/>
  <path class="cls-2" d="M96.33,162.8l-10.23-11.7c-2.32-3.27-9.73-.21-6.26,4.04l10.87,11.7c-3.71,3.58-7.89,7.29-11.31,10.86-1.62,1.38-1.62,3.17,0,4.55,1.45,1.28,3.47,1.69,5.5,0l15.6-14.22-4.17-5.22Z"/>
  <path class="cls-1" d="M128.71,242.11h0l9.26-10.59c2.1-2.96,8.81-.19,5.66,3.66l-9.84,10.59c3.36,3.24,7.15,6.6,10.24,9.84,1.47,1.25,1.47,2.87,0,4.12-1.31,1.16-3.15,1.53-4.98,0l-14.12-12.88"/>
  <path class="cls-1" d="M176.81,165.8c-2.22,0-4,1.57-4,3.42v40.83c0,1.85,1.71,3.42,3.75,3.42,2.22,0,4-1.57,4-3.42v-40.83c0-1.85-1.71-3.42-3.75-3.42"/>
  <path class="cls-1" d="M115.35,191.29c0-1.85,1.78-3.42,4-3.42,2.03,0,3.75,1.57,3.75,3.42v14.73h37.29c6.23,0,6.35,7.34,0,7.34h-41.04c-2.22,0-4-1.4-4-3.42v-18.65Z"/>
  <path class="cls-1" d="M321.02,210.74c.03-.07.05-.14.07-.21.03-.1.05-.19.06-.29,0,0,0-.01,0-.01.19-1.15-.27-2.37-1.34-3.2l-17.06-18.51c4.06-3.92,13.64-12.96,17.38-16.88,1.78-1.51,1.78-3.47,0-4.99-1.59-1.4-3.81-1.85-6.03,0l-22.09,20.57,4.58,5.73,11.51,13.07h-34.22v-25.38c0-2.02-2.29-3.47-4.38-3.47h-10.14c-20.95,0-26.44,17.61-17.42,28.85h-18.88v-36.8c0-1.85-1.71-3.42-3.75-3.42-2.22,0-4,1.57-4,3.42v40.72c0,2.02,1.78,3.42,4,3.42h97.18s.03,0,.05,0c.28,0,.56-.02.83-.06,2.02-.24,3.23-1.3,3.65-2.55M259.36,184h6.14v22.02h-10.06c-13.22-3.5-12.51-22.02,3.92-22.02"/>
  <path class="cls-1" d="M255.82,170.02c0,2.27,1.86,4.11,4.15,4.11s4.15-1.84,4.15-4.11-1.86-4.11-4.15-4.11-4.15,1.84-4.15,4.11"/>
  <path class="cls-3" d="M92.26,143.66c0,3.35,2.74,6.07,6.13,6.07s6.13-2.72,6.13-6.07-2.74-6.07-6.13-6.07-6.13,2.72-6.13,6.07"/>
  <path class="cls-1" d="M144.97,175.06c-.05,0-.1.01-.16.02v-.02h-8.55c-2.29,0-4.15,1.84-4.15,4.11s1.86,4.11,4.15,4.11h8.55v-.02c.05,0,.1.02.16.02,2.29,0,4.15-1.84,4.15-4.11s-1.86-4.11-4.15-4.11"/>
  <path class="cls-1" d="M123.68,249.68v7.66c0,4.54-7.25,4.6-7.25,0v-31.25c0-4.65,7.25-4.82,7.25,0v13.9"/>
  <path class="cls-1" d="M152.28,260.68c-1.76-.98-2.85-2.96-1.76-5.25l15.76-30.71c1.48-2.9,5.43-3.01,6.81,0l15.48,30.71c2.25,4.27-4.39,7.66-6.37,3.39l-2.41-4.82h-20.26l-2.36,4.82c-.88,1.86-2.91,2.24-4.89,1.86M175.88,246.78l-6.2-13.52-6.75,13.52h12.96Z"/>
  <path class="cls-1" d="M199.52,229.92v8.7h14c1.98,0,3.95,1.97,3.95,3.89,0,1.81-1.98,3.28-3.95,3.28h-14v11.49c0,1.92-1.37,3.39-3.29,3.39-2.41,0-3.9-1.48-3.9-3.39v-31.09c0-1.97,1.48-3.39,3.9-3.39h19.27c2.41,0,3.84,1.42,3.84,3.39,0,1.75-1.43,3.72-3.84,3.72h-15.98Z"/>
  <path class="cls-1" d="M218.77,260.68c-1.76-.98-2.85-2.96-1.76-5.25l15.76-30.71c1.48-2.9,5.43-3.01,6.81,0l15.48,30.71c2.25,4.27-4.39,7.66-6.37,3.39l-2.42-4.82h-20.26l-2.36,4.82c-.88,1.86-2.91,2.24-4.89,1.86M242.37,246.78l-6.2-13.52-6.75,13.52h12.96Z"/>
  <path class="cls-1" d="M259.28,260.68c-1.76-.98-2.85-2.96-1.76-5.25l15.76-30.71c1.48-2.9,5.43-3.01,6.81,0l15.48,30.71c2.25,4.27-4.39,7.66-6.37,3.39l-2.42-4.82h-20.26l-2.36,4.82c-.88,1.86-2.91,2.24-4.89,1.86M282.89,246.78l-6.2-13.52-6.75,13.52h12.96Z"/>
  <path class="cls-1" d="M301.45,229.65h-9.61c-4.78,0-4.78-7.01,0-7.01h25.97c4.89,0,4.89,7.01,0,7.01h-9.11v27.64c0,4.76-7.25,4.87-7.25,0v-27.64Z"/>
</svg>